<?xml version="1.0" encoding="UTF-8" ?>
<!DOCTYPE svg PUBLIC "-//W3C//DTD SVG 1.1//EN" "http://www.w3.org/Graphics/SVG/1.1/DTD/svg11.dtd">
<svg width="626pt" height="160pt" viewBox="0 0 626 160" version="1.1" xmlns="http://www.w3.org/2000/svg">
<g id="#ffffffff">
<path fill="#ffffff" opacity="1.00" d=" M 618.49 0.00 L 622.01 0.00 C 623.34 1.34 624.67 2.69 626.00 4.05 L 626.00 5.89 C 620.56 15.26 610.87 21.20 602.06 27.04 C 591.55 33.23 581.82 40.66 572.68 48.73 C 585.90 51.02 600.67 51.52 611.50 60.49 C 622.78 70.38 624.82 88.00 617.87 100.93 C 611.43 112.81 597.07 115.90 584.85 117.83 C 573.70 119.12 562.07 121.29 551.11 117.85 C 545.11 115.48 540.50 110.64 535.56 106.66 C 524.59 114.75 511.24 119.80 497.51 119.70 C 487.67 119.56 476.47 120.27 468.34 113.62 C 460.40 106.90 457.19 96.12 457.15 86.02 C 456.62 67.68 456.95 49.32 456.90 30.97 C 457.45 24.01 455.99 16.24 460.02 10.04 C 461.70 6.24 466.78 6.53 470.03 7.93 C 474.29 9.93 475.04 15.29 475.46 19.41 C 477.11 40.90 475.09 62.47 476.20 83.98 C 475.73 91.80 480.81 100.71 489.01 102.00 C 500.12 104.16 513.72 102.64 521.73 93.76 C 529.17 84.30 524.72 71.54 527.86 60.79 C 530.07 55.63 538.52 54.52 541.68 59.32 C 545.18 69.79 543.53 81.08 546.23 91.70 C 547.93 98.52 554.65 104.27 561.98 103.07 C 574.79 103.30 588.28 102.00 599.66 95.63 C 605.39 92.50 607.12 84.14 602.80 79.20 C 593.25 69.42 578.70 68.35 566.70 63.20 C 558.61 59.25 557.44 48.00 560.35 40.35 C 567.30 27.72 580.45 20.66 592.19 13.17 C 600.58 8.12 609.01 2.79 618.49 0.00 Z" />
<path fill="#ffffff" opacity="1.00" d=" M 198.00 5.92 C 204.18 6.46 210.89 10.47 210.41 17.57 C 211.78 46.01 210.77 74.55 210.95 103.03 C 211.54 109.07 208.56 114.40 206.10 119.64 C 200.95 119.66 193.26 118.98 193.02 112.02 C 190.53 89.14 192.72 65.99 191.94 43.00 C 192.67 30.60 188.89 16.20 198.00 5.92 Z" />
<path fill="#ffffff" opacity="1.00" d=" M 332.33 14.36 C 337.83 13.31 343.72 17.88 342.04 24.02 C 341.59 29.85 333.31 31.37 328.93 29.10 C 322.61 25.71 324.98 14.56 332.33 14.36 Z" />
<path fill="#ffffff" opacity="1.00" d=" M 140.41 26.38 C 144.27 25.50 150.04 26.33 151.29 30.82 C 152.94 34.79 151.16 40.84 146.37 41.44 C 142.31 42.45 136.37 41.38 135.33 36.59 C 133.19 32.22 136.16 27.46 140.41 26.38 Z" />
<path fill="#ffffff" opacity="1.00" d=" M 496.24 27.20 C 500.54 24.91 505.47 26.39 509.35 28.74 C 509.13 32.69 508.81 36.65 508.14 40.55 C 502.62 41.88 496.89 41.44 492.23 38.10 C 493.34 34.84 492.04 28.87 496.24 27.20 Z" />
<path fill="#ffffff" opacity="1.00" d=" M 522.24 27.19 C 525.80 25.62 530.76 25.45 533.72 28.30 C 536.01 32.19 536.28 39.54 530.96 41.03 C 526.51 43.31 522.01 40.27 518.29 38.00 C 519.34 34.76 518.06 28.84 522.24 27.19 Z" />
<path fill="#ffffff" opacity="1.00" d=" M 330.93 47.90 C 340.41 42.44 352.26 44.98 361.66 49.34 C 366.72 52.32 372.14 55.63 374.96 61.02 C 381.29 71.58 379.49 84.41 382.17 95.95 C 382.89 99.03 385.30 101.85 388.47 102.50 C 398.37 103.52 409.86 101.60 416.51 93.49 C 421.67 86.38 420.42 77.25 421.34 69.05 C 421.73 65.26 421.35 59.50 425.61 57.56 C 428.90 56.41 433.48 56.15 435.87 59.16 C 439.15 62.91 437.67 68.48 438.23 72.98 C 438.07 85.24 437.89 99.87 427.45 108.42 C 417.38 116.79 403.85 119.42 391.09 119.68 C 382.94 119.32 376.95 113.04 372.49 106.85 C 367.09 111.62 361.26 116.41 354.00 117.86 C 343.26 120.88 331.99 120.14 320.98 120.26 C 310.85 120.13 299.57 120.20 291.21 113.66 C 289.30 121.25 288.07 129.19 283.91 135.97 C 277.66 148.14 265.57 156.48 252.55 160.00 L 248.20 160.00 C 243.78 158.60 239.12 156.02 237.47 151.42 C 236.23 148.21 238.73 144.90 241.64 143.73 C 248.69 140.76 256.96 140.84 263.43 136.43 C 273.10 129.16 278.78 117.05 278.94 105.02 C 278.70 95.40 278.61 84.68 272.18 76.82 C 268.60 73.36 262.96 73.94 258.44 74.33 C 249.65 77.53 248.24 89.27 252.11 96.78 C 256.70 101.46 263.31 102.80 269.14 105.25 C 268.81 109.05 268.51 112.85 268.23 116.66 C 260.60 119.54 251.00 121.41 244.03 115.95 C 236.79 111.49 233.71 103.01 233.15 94.93 C 232.84 85.40 232.37 74.60 238.71 66.70 C 244.29 61.10 252.15 57.90 260.08 58.24 C 268.63 58.32 278.74 58.39 285.48 64.56 C 294.56 72.43 291.91 85.52 294.21 95.94 C 294.95 100.05 299.21 102.25 303.04 102.70 C 317.95 103.61 332.94 103.61 347.85 102.53 C 351.77 101.80 356.73 101.99 359.38 98.38 C 364.75 94.07 363.16 86.67 362.29 80.79 C 360.20 73.49 354.11 65.85 346.01 65.42 C 337.74 65.97 332.00 73.17 325.82 77.81 C 322.11 81.48 316.31 84.56 311.13 81.91 C 305.44 78.44 307.05 70.14 310.47 65.52 C 316.06 58.47 322.88 52.05 330.93 47.90 Z" />
<path fill="#ffffff" opacity="1.00" d=" M 157.15 62.05 C 158.55 54.77 171.52 54.81 172.61 62.32 C 173.70 77.79 175.27 96.21 163.23 108.21 C 151.46 117.63 135.71 120.08 121.02 120.03 C 80.68 120.04 40.34 119.96 0.00 120.00 L 0.00 103.00 C 39.34 102.96 78.68 103.03 118.02 103.06 C 129.38 102.71 142.85 103.67 151.22 94.22 C 158.29 84.97 154.76 72.65 157.15 62.05 Z" />
<path fill="#ffffff" opacity="1.00" d=" M 408.39 135.45 C 411.70 134.99 416.59 135.32 417.98 139.06 C 420.08 143.12 418.48 149.76 413.37 150.44 C 409.58 151.24 404.03 150.66 402.59 146.35 C 400.32 141.89 403.25 135.62 408.39 135.45 Z" />
</g>
</svg>
