<?xml version="1.0" encoding="UTF-8" ?>
<!DOCTYPE svg PUBLIC "-//W3C//DTD SVG 1.1//EN" "http://www.w3.org/Graphics/SVG/1.1/DTD/svg11.dtd">
<svg width="766pt" height="240pt" viewBox="0 0 766 240" version="1.1" xmlns="http://www.w3.org/2000/svg">
<g id="#0b5ea0ff">
<path fill="#0b5ea0" opacity="1.00" d=" M 1.57 0.00 L 5.51 0.00 C 10.97 1.64 15.86 4.65 20.94 7.14 C 35.39 14.76 50.12 21.84 64.31 29.95 C 53.20 30.46 42.08 30.17 30.97 30.22 C 30.38 36.80 30.75 43.40 30.68 49.99 C 30.67 104.66 30.68 159.33 30.67 214.00 C 30.73 218.87 30.03 223.90 31.76 228.59 C 25.96 231.38 20.34 234.54 14.64 237.53 C 11.46 239.08 7.70 240.59 4.19 239.24 C 1.79 238.33 1.02 235.65 0.00 233.56 L 0.00 2.62 C 1.29 2.79 2.26 1.07 1.57 0.00 Z" />
<path fill="#0b5ea0" opacity="1.00" d=" M 743.65 41.61 C 748.70 38.54 754.16 35.96 760.05 35.03 C 762.74 34.85 764.58 37.21 766.00 39.18 L 766.00 40.65 C 765.04 42.98 763.63 45.08 761.80 46.79 C 751.03 58.22 736.37 64.57 724.13 74.13 C 720.24 77.27 716.27 80.34 712.70 83.84 C 717.35 85.54 722.38 84.69 727.15 85.81 C 738.48 87.47 750.64 91.85 757.03 101.98 C 763.68 112.54 763.20 126.47 757.25 137.24 C 753.54 143.72 746.49 147.41 739.61 149.61 C 728.60 152.26 717.36 154.50 705.98 154.06 C 699.08 155.20 691.67 154.15 685.76 150.24 C 681.85 147.86 678.86 144.34 675.71 141.09 C 671.83 144.17 668.00 147.50 663.31 149.31 C 656.81 151.78 650.04 154.11 643.00 154.01 C 638.31 153.90 633.74 155.52 629.04 154.95 C 621.88 154.01 614.10 153.52 608.27 148.75 C 600.87 142.40 597.79 132.44 597.01 123.02 C 596.96 100.67 597.06 78.31 596.96 55.96 C 596.79 51.62 598.32 47.32 600.77 43.79 C 604.97 39.87 612.66 42.41 614.17 47.82 C 615.30 51.76 616.08 55.85 616.03 59.97 C 615.94 79.66 616.06 99.35 615.96 119.04 C 615.68 125.02 618.79 130.91 623.36 134.64 C 631.86 139.88 642.48 138.27 651.56 135.56 C 658.13 133.49 663.80 128.24 665.37 121.39 C 666.27 116.87 667.65 112.17 666.42 107.57 C 665.50 103.86 666.46 100.06 667.43 96.47 C 669.46 90.88 678.24 89.21 681.70 94.32 C 685.36 101.30 683.45 109.38 684.13 116.89 C 684.82 121.71 685.91 126.56 688.01 130.99 C 690.09 134.25 693.14 137.38 697.19 137.83 C 710.18 138.75 723.56 137.75 735.70 132.71 C 740.41 130.71 745.64 126.74 745.10 121.00 C 745.62 116.64 742.32 113.28 739.17 110.82 C 731.51 105.93 722.78 103.07 713.99 100.98 C 709.64 99.51 704.34 98.44 702.00 94.01 C 697.33 87.19 697.86 77.41 702.97 70.97 C 708.66 63.56 716.40 58.16 724.21 53.22 C 730.67 49.32 736.89 45.00 743.65 41.61 Z" />
<path fill="#0b5ea0" opacity="1.00" d=" M 338.36 42.19 C 341.30 41.46 344.59 42.01 346.78 44.21 C 350.33 47.02 350.28 51.92 350.97 55.99 C 351.07 83.67 350.94 111.35 351.03 139.02 C 351.06 144.38 349.47 149.95 345.80 153.98 C 342.95 154.03 340.11 154.03 337.26 153.94 C 333.41 150.83 332.12 145.79 331.98 141.04 C 332.01 112.68 332.01 84.32 331.98 55.97 C 332.04 50.72 333.83 45.25 338.36 42.19 Z" />
<path fill="#0b5ea0" opacity="1.00" d=" M 467.22 51.22 C 469.15 50.46 471.08 49.64 473.10 49.10 C 475.77 49.67 479.18 49.63 480.70 52.32 C 482.50 55.14 482.66 59.12 481.03 62.04 C 477.15 66.32 467.73 66.57 465.77 60.18 C 464.10 57.14 466.26 54.09 467.22 51.22 Z" />
<path fill="#0b5ea0" opacity="1.00" d=" M 275.05 65.26 C 277.82 62.00 282.15 59.64 286.43 61.54 C 293.70 62.70 293.69 75.31 286.43 76.46 C 283.56 77.66 280.31 76.71 277.75 75.26 C 274.62 72.91 274.79 68.76 275.05 65.26 Z" />
<path fill="#0b5ea0" opacity="1.00" d=" M 633.96 63.97 C 637.83 59.89 645.19 59.78 648.97 64.20 C 648.97 67.77 649.55 71.54 647.83 74.84 C 644.40 76.08 640.72 77.41 637.15 75.90 C 632.14 74.39 631.98 67.92 633.96 63.97 Z" />
<path fill="#0b5ea0" opacity="1.00" d=" M 660.35 63.35 C 663.28 61.35 666.96 60.10 670.43 61.54 C 676.32 62.62 675.80 70.59 673.81 74.79 C 671.56 75.59 669.38 76.69 667.00 77.03 C 663.83 76.76 661.13 75.07 659.05 72.74 C 659.12 69.60 658.23 66.04 660.35 63.35 Z" />
<path fill="#0b5ea0" opacity="1.00" d=" M 458.24 92.24 C 463.45 86.28 470.70 82.44 478.17 80.14 C 483.59 79.91 489.28 79.32 494.38 81.59 C 503.73 84.21 512.73 90.16 516.71 99.31 C 520.39 106.64 520.05 114.98 520.07 122.94 C 521.16 127.81 521.80 133.67 526.32 136.67 C 528.82 138.55 532.08 138.03 535.01 137.99 C 542.18 136.99 549.93 135.63 555.20 130.20 C 559.09 125.38 561.40 119.25 561.03 113.01 C 561.24 106.56 559.72 99.37 563.74 93.74 C 566.48 91.26 570.37 92.05 573.74 92.05 C 575.54 94.07 577.96 96.09 577.98 99.02 C 578.02 106.02 578.04 113.02 577.97 120.01 C 576.95 128.62 574.27 137.65 567.63 143.62 C 558.15 150.26 546.73 154.48 535.07 154.13 C 525.36 156.67 516.27 149.21 512.32 140.85 C 508.37 147.26 501.21 151.24 494.03 153.05 C 480.24 156.11 466.03 154.67 452.00 155.02 C 444.59 155.29 436.17 153.92 431.22 147.85 C 429.78 156.31 427.64 164.83 423.33 172.33 C 420.62 177.70 415.90 181.56 411.71 185.72 C 405.67 190.40 398.47 193.67 390.93 194.98 C 387.13 194.59 382.85 193.84 380.20 190.81 C 377.75 188.49 375.79 184.26 378.31 181.32 C 382.32 176.18 389.53 177.03 395.15 175.15 C 403.06 173.27 409.53 167.37 413.34 160.34 C 417.81 152.36 419.39 143.03 419.01 133.97 C 418.24 126.67 417.38 119.05 413.25 112.76 C 410.14 109.41 405.37 108.46 400.97 108.96 C 397.25 108.71 394.45 111.67 392.33 114.33 C 390.45 118.28 389.18 122.96 390.72 127.24 C 391.55 132.14 395.79 136.97 401.00 137.01 C 403.99 136.93 406.49 138.73 408.98 140.15 C 408.80 143.84 409.98 148.21 407.24 151.24 C 403.99 153.46 399.99 154.71 396.08 154.95 C 392.18 154.08 387.87 153.91 384.55 151.44 C 381.81 149.58 379.43 147.21 377.35 144.65 C 372.96 135.88 372.36 125.81 373.22 116.21 C 374.19 110.45 375.51 104.15 380.21 100.21 C 384.41 95.84 390.52 94.53 396.20 93.19 C 406.23 92.31 417.21 93.35 425.64 99.36 C 431.21 103.85 431.93 111.42 432.98 117.99 C 433.06 123.67 432.18 130.15 436.22 134.78 C 438.44 136.46 441.09 138.08 443.97 138.02 C 457.66 138.01 471.34 137.97 485.03 138.03 C 489.01 138.14 492.89 136.92 496.62 135.65 C 499.16 133.53 502.05 131.21 502.91 127.87 C 503.40 121.59 503.15 114.83 499.64 109.37 C 496.16 105.38 492.43 100.72 486.69 100.40 C 480.56 100.68 474.69 104.07 470.76 108.75 C 466.03 113.38 460.34 118.73 453.18 117.99 C 449.56 116.68 446.89 112.91 446.97 109.07 C 447.94 102.00 453.38 96.94 458.24 92.24 Z" />
<path fill="#0b5ea0" opacity="1.00" d=" M 298.31 94.33 C 300.72 91.31 305.23 91.69 308.65 92.27 C 312.73 93.88 313.22 99.14 313.04 102.97 C 312.66 111.51 313.98 120.24 311.60 128.59 C 310.23 133.37 307.85 137.87 304.72 141.72 C 293.60 152.22 277.66 154.44 263.02 155.03 C 229.98 154.93 196.94 155.08 163.90 154.95 C 171.84 150.07 180.06 145.65 188.04 140.81 C 188.41 126.48 188.02 112.14 188.22 97.81 C 194.09 100.85 199.81 104.18 205.60 107.38 C 209.52 109.67 213.80 112.62 214.84 117.35 C 215.68 121.26 213.27 124.99 210.34 127.36 C 205.22 131.54 199.00 134.01 193.66 137.86 C 218.11 138.20 242.58 137.88 267.03 138.03 C 274.11 137.78 281.60 136.79 287.45 132.46 C 291.86 129.94 293.81 124.95 295.41 120.41 C 297.53 111.88 293.67 102.31 298.31 94.33 Z" />
<path fill="#0b5ea0" opacity="1.00" d=" M 548.37 170.30 C 551.22 169.48 554.50 170.45 556.81 172.20 C 558.49 174.44 559.62 177.68 558.47 180.42 C 557.08 187.58 545.20 187.79 542.61 181.38 C 540.41 176.95 543.21 170.77 548.37 170.30 Z" />
</g>
<g id="#009af0ff">
<path fill="#009af0" opacity="1.00" d=" M 30.97 30.22 C 42.08 30.17 53.20 30.46 64.31 29.95 L 65.22 30.12 C 65.55 90.22 65.08 150.33 65.45 210.43 C 54.29 216.62 43.06 222.68 31.76 228.59 C 30.03 223.90 30.73 218.87 30.67 214.00 C 30.68 159.33 30.67 104.66 30.68 49.99 C 30.75 43.40 30.38 36.80 30.97 30.22 Z" />
</g>
<g id="#3fdcffff">
<path fill="#3fdcff" opacity="1.00" d=" M 65.22 30.12 C 67.46 30.45 69.73 30.42 71.99 30.41 C 89.05 30.32 106.12 30.50 123.18 30.32 C 123.65 46.28 123.24 62.27 123.37 78.24 C 129.78 76.11 135.71 72.78 142.07 70.54 C 148.85 72.26 154.97 76.26 161.71 78.35 C 161.79 62.35 161.45 46.34 161.87 30.35 C 168.88 30.49 175.90 30.25 182.91 30.44 C 186.18 30.45 188.30 33.96 188.19 36.95 C 188.26 57.24 188.18 77.53 188.22 97.81 C 188.02 112.14 188.41 126.48 188.04 140.81 C 180.06 145.65 171.84 150.07 163.90 154.95 C 131.22 173.69 98.50 192.36 65.45 210.43 C 65.08 150.33 65.55 90.22 65.22 30.12 Z" />
</g>
</svg>
