<?xml version="1.0" encoding="UTF-8" ?>
<!DOCTYPE svg PUBLIC "-//W3C//DTD SVG 1.1//EN" "http://www.w3.org/Graphics/SVG/1.1/DTD/svg11.dtd">
<svg width="766pt" height="240pt" viewBox="0 0 766 240" version="1.1" xmlns="http://www.w3.org/2000/svg">
<g id="#ffffffff">
<path fill="#ffffff" opacity="1.00" d=" M 0.00 0.00 L 2.64 0.00 C 2.36 1.23 1.35 2.56 0.00 2.61 L 0.00 0.00 Z" />
<path fill="#ffffff" opacity="1.00" d=" M 5.51 0.00 L 15.54 0.00 C 32.28 8.34 48.85 17.03 65.39 25.76 C 66.77 26.58 68.43 26.34 69.96 26.41 C 87.28 26.36 104.61 26.37 121.93 26.40 C 124.61 26.21 127.42 28.08 127.29 30.99 C 127.52 44.71 127.30 58.44 127.38 72.17 C 132.68 70.54 137.46 67.15 142.99 66.46 C 148.11 67.99 152.91 70.46 157.77 72.67 C 157.59 59.10 157.70 45.52 157.70 31.95 C 157.37 29.18 159.33 26.49 162.22 26.49 C 168.81 26.23 175.41 26.43 182.01 26.39 C 186.66 26.18 190.99 29.60 191.93 34.14 C 192.50 37.73 192.13 41.38 192.22 45.00 C 192.27 61.84 192.10 78.68 192.30 95.52 C 196.97 97.82 201.41 100.56 206.01 103.00 C 210.22 105.23 214.14 108.15 216.96 112.04 C 220.23 116.98 219.31 123.98 215.14 128.11 C 211.42 132.45 206.13 134.80 201.46 137.89 C 223.31 138.16 245.17 137.90 267.03 138.03 C 275.72 137.90 285.13 135.90 291.23 129.22 C 293.12 126.25 294.62 123.00 295.66 119.64 C 297.17 111.28 293.90 102.08 298.29 94.30 C 301.32 91.08 307.04 91.18 310.66 93.33 C 312.02 95.65 313.38 98.16 313.03 100.96 C 312.58 110.94 314.31 121.26 310.90 130.90 C 309.37 134.77 307.35 138.48 304.75 141.74 C 296.90 148.94 286.42 152.68 275.96 153.94 C 272.25 153.73 268.73 155.12 265.04 155.02 C 235.00 154.96 204.97 155.05 174.93 154.97 C 173.48 155.03 171.91 154.87 170.62 155.67 C 120.38 184.62 69.99 213.36 18.48 240.00 L 0.00 240.00 L 0.00 233.54 C 1.02 237.54 4.63 240.90 9.00 239.56 C 16.89 237.43 23.49 232.19 30.96 228.98 C 51.80 218.41 72.04 206.72 92.52 195.47 C 124.79 177.44 156.88 159.10 188.79 140.45 C 194.97 136.73 201.34 133.32 207.45 129.49 C 211.07 127.12 214.92 123.75 214.98 119.07 C 215.00 114.06 210.77 110.50 206.84 108.13 C 200.68 104.59 194.49 101.11 188.20 97.79 C 188.05 78.18 188.19 58.57 188.15 38.95 C 188.19 35.77 187.52 31.17 183.72 30.53 C 176.52 30.13 169.30 30.54 162.09 30.34 C 161.26 46.28 162.01 62.27 161.73 78.23 C 154.87 76.62 149.00 72.17 142.16 70.63 C 135.64 72.44 129.92 76.40 123.35 78.10 C 123.04 62.19 123.83 46.23 122.97 30.34 C 108.31 30.45 93.66 30.38 79.00 30.40 C 74.11 30.41 69.21 30.55 64.34 30.07 C 49.80 21.54 34.49 14.36 19.61 6.44 C 14.97 4.17 10.49 1.47 5.51 0.00 Z" />
<path fill="#ffffff" opacity="1.00" d=" M 738.41 44.42 C 745.61 40.68 752.57 35.78 760.87 34.96 C 763.24 35.51 764.81 37.32 766.00 39.34 L 766.00 40.50 C 764.76 44.67 761.12 47.26 758.26 50.27 C 751.07 56.65 742.86 61.70 734.68 66.68 C 726.95 71.81 719.54 77.45 712.71 83.74 C 714.15 84.15 715.53 84.89 717.07 84.94 C 724.37 84.82 731.56 86.49 738.56 88.43 C 745.30 90.99 752.15 94.64 756.19 100.83 C 759.64 104.91 760.61 110.31 761.64 115.39 C 762.45 118.94 761.98 122.61 761.12 126.11 C 759.84 133.17 756.77 140.51 750.44 144.43 C 740.90 151.16 728.84 151.72 717.75 153.77 C 712.14 154.51 706.39 153.28 700.86 154.69 C 696.34 154.23 691.64 153.69 687.65 151.35 C 682.87 148.92 679.26 144.88 675.67 141.01 C 667.95 148.60 657.39 152.23 646.91 153.91 C 643.74 154.20 640.52 153.67 637.41 154.41 C 632.96 155.55 628.30 155.08 623.87 154.17 C 618.30 153.86 612.71 152.18 608.26 148.76 C 601.08 142.62 598.10 133.08 597.02 123.99 C 596.99 100.35 596.96 76.70 597.04 53.06 C 598.06 48.89 599.24 43.05 604.19 42.03 C 607.96 41.21 611.63 43.28 613.71 46.35 C 615.17 51.08 616.25 56.01 616.02 60.99 C 615.96 80.67 616.04 100.35 615.98 120.04 C 615.83 125.28 618.77 130.08 622.24 133.78 C 627.45 137.90 634.52 138.45 640.91 137.91 C 647.96 136.68 655.78 135.43 660.80 129.79 C 665.37 125.38 665.91 118.75 666.94 112.85 C 667.51 109.26 665.20 105.85 666.18 102.26 C 666.82 98.35 667.49 93.16 672.08 92.06 C 675.27 90.29 679.61 91.36 681.72 94.30 C 684.54 99.77 684.05 106.06 683.98 112.01 C 683.70 117.80 685.20 123.49 687.09 128.91 C 688.06 132.23 690.82 134.54 693.38 136.68 C 697.97 138.82 703.12 137.77 708.00 138.01 C 714.85 138.40 721.61 136.88 728.22 135.22 C 733.72 133.84 739.57 131.79 743.25 127.22 C 745.59 124.52 745.27 120.64 744.74 117.36 C 742.75 113.17 738.89 110.09 734.68 108.31 C 727.76 104.47 720.05 102.50 712.45 100.56 C 709.07 99.12 704.99 98.45 702.77 95.22 C 701.28 92.91 700.03 90.41 699.09 87.83 C 698.92 83.91 698.49 79.78 700.07 76.07 C 702.29 70.42 707.04 66.38 711.31 62.29 C 719.80 55.54 729.24 50.15 738.41 44.42 Z" />
<path fill="#ffffff" opacity="1.00" d=" M 338.32 42.03 C 343.32 40.91 348.77 44.15 349.86 49.19 C 349.92 51.52 350.99 53.66 351.00 55.98 C 351.01 83.32 350.98 110.66 351.02 138.00 C 351.24 143.69 349.72 149.75 345.75 153.99 C 342.93 154.01 340.12 154.02 337.31 153.97 C 333.64 151.08 332.36 146.47 332.00 142.01 C 332.00 113.00 332.00 83.99 332.00 54.98 C 331.94 52.98 332.80 51.12 333.14 49.17 C 333.67 46.07 336.41 44.27 338.32 42.03 Z" />
<path fill="#ffffff" opacity="1.00" d=" M 467.21 51.21 C 469.16 50.46 471.12 49.71 473.11 49.04 C 474.98 49.37 476.79 49.95 478.68 50.26 C 482.64 53.00 482.99 58.80 480.76 62.75 C 477.22 64.74 472.75 66.27 468.95 64.05 C 466.24 62.87 465.41 59.77 465.04 57.12 C 465.70 55.13 466.46 53.17 467.21 51.21 Z" />
<path fill="#ffffff" opacity="1.00" d=" M 275.03 65.30 C 277.23 63.24 279.65 60.54 282.99 60.95 C 286.53 61.07 291.02 62.46 291.45 66.60 C 292.72 68.95 291.41 71.39 290.72 73.67 C 288.13 77.20 282.84 77.75 279.04 75.96 C 274.85 74.29 274.62 69.16 275.03 65.30 Z" />
<path fill="#ffffff" opacity="1.00" d=" M 634.24 63.25 C 638.75 60.27 645.23 59.75 648.98 64.25 C 648.87 67.81 649.66 71.58 647.79 74.82 C 642.93 77.21 636.49 77.51 633.03 72.69 C 633.05 69.50 632.43 66.10 634.24 63.25 Z" />
<path fill="#ffffff" opacity="1.00" d=" M 660.24 63.25 C 662.49 62.50 664.46 60.60 666.99 60.95 C 670.02 61.17 673.96 61.83 674.72 65.36 C 675.33 68.48 675.34 71.93 673.79 74.80 C 671.80 75.54 669.83 76.32 667.82 76.95 C 664.35 77.18 661.25 75.23 659.03 72.70 C 659.05 69.50 658.43 66.11 660.24 63.25 Z" />
<path fill="#ffffff" opacity="1.00" d=" M 467.01 85.02 C 470.89 83.11 474.70 80.67 479.04 80.02 C 483.92 80.17 489.05 79.19 493.63 81.36 C 501.64 83.53 509.41 87.94 514.20 94.82 C 519.73 102.73 520.46 112.67 519.99 122.02 C 520.95 127.83 522.02 135.35 528.36 137.74 C 534.51 138.92 540.62 136.95 546.60 135.66 C 549.54 134.43 552.24 132.69 554.76 130.76 C 558.84 125.80 561.49 119.51 561.02 113.01 C 561.28 106.56 559.70 99.34 563.75 93.75 C 566.46 91.22 570.34 92.10 573.70 92.03 C 575.76 94.23 578.43 96.64 578.02 99.98 C 577.60 108.92 579.00 118.04 576.81 126.80 C 575.47 131.39 574.20 136.27 570.85 139.85 C 568.52 144.31 563.47 145.89 559.55 148.58 C 554.64 150.58 549.71 152.73 544.41 153.42 C 540.35 154.88 535.80 152.96 531.86 154.92 C 527.84 154.06 523.41 153.74 520.26 150.75 C 517.32 147.74 513.64 145.09 512.61 140.77 C 506.61 149.49 495.69 154.22 485.19 154.14 C 483.82 154.54 482.47 155.11 481.02 155.01 C 469.36 154.97 457.70 155.06 446.05 154.96 C 442.41 154.17 438.65 153.44 435.33 151.69 C 433.84 150.47 432.54 149.04 431.14 147.74 C 429.67 158.14 426.48 168.61 420.20 177.19 C 417.31 180.29 414.29 183.30 411.19 186.20 C 404.93 190.63 397.73 194.12 390.06 195.02 C 386.60 194.16 382.58 193.83 380.22 190.79 C 377.99 189.19 377.68 186.46 376.81 184.08 C 378.13 180.37 381.51 178.08 385.20 177.15 C 390.35 176.38 395.51 175.39 400.33 173.33 C 409.97 168.41 415.79 158.22 417.94 147.94 C 419.05 141.38 419.85 134.45 418.06 127.93 C 418.23 123.24 416.22 118.83 414.36 114.63 C 413.19 111.43 409.72 110.26 406.87 109.04 C 402.94 109.10 398.26 108.00 395.24 111.23 C 387.07 117.76 388.74 133.65 399.17 136.91 C 402.83 136.48 406.00 138.31 409.00 140.15 C 408.73 143.86 410.03 148.23 407.23 151.25 C 404.23 153.45 400.51 154.25 396.94 155.02 C 394.91 155.12 393.06 154.03 391.05 153.96 C 385.22 153.32 381.01 148.79 377.30 144.68 C 372.16 133.56 371.60 120.56 374.85 108.84 C 376.25 103.57 380.21 99.49 384.79 96.76 C 396.42 91.25 410.35 91.82 422.00 97.01 C 424.39 98.53 427.12 99.89 428.43 102.57 C 431.69 106.39 431.46 111.62 432.85 116.19 C 433.53 121.33 431.94 126.80 434.35 131.64 C 435.27 135.27 439.02 136.70 442.13 137.96 C 456.42 138.07 470.72 137.94 485.02 138.02 C 489.04 138.29 492.84 136.73 496.66 135.72 C 499.08 133.42 502.07 131.24 502.96 127.86 C 503.33 121.35 503.17 114.29 499.23 108.79 C 497.48 106.86 495.59 105.07 493.75 103.24 C 491.75 101.10 488.65 100.98 486.00 100.24 C 482.17 100.84 478.68 102.45 475.34 104.34 C 471.68 107.33 468.92 111.34 464.86 113.85 C 461.02 117.26 454.22 120.18 449.95 116.00 C 448.41 114.73 447.83 112.60 446.98 110.84 C 446.83 105.17 450.34 100.07 454.24 96.24 C 458.39 92.38 461.90 87.70 467.01 85.02 Z" />
<path fill="#ffffff" opacity="1.00" d=" M 548.38 170.31 C 550.84 169.34 553.33 170.57 555.67 171.28 C 559.76 174.20 559.93 180.98 556.25 184.27 C 553.21 186.16 549.33 186.56 546.05 184.96 C 539.53 182.22 541.07 170.81 548.38 170.31 Z" />
</g>
<g id="#0b5ea0ff">
<path fill="#0b5ea0" opacity="1.00" d=" M 2.64 0.00 L 5.51 0.00 C 10.49 1.47 14.97 4.17 19.61 6.44 C 34.49 14.36 49.80 21.54 64.34 30.07 C 53.33 30.70 42.29 30.22 31.27 30.34 C 31.09 89.56 31.24 148.78 31.19 208.01 C 31.15 214.99 31.37 221.99 30.96 228.98 C 23.49 232.19 16.89 237.43 9.00 239.56 C 4.63 240.90 1.02 237.54 0.00 233.54 L 0.00 2.61 C 1.35 2.56 2.36 1.23 2.64 0.00 Z" />
<path fill="#0b5ea0" opacity="1.00" d=" M 188.20 97.79 C 194.49 101.11 200.68 104.59 206.84 108.13 C 210.77 110.50 215.00 114.06 214.98 119.07 C 214.92 123.75 211.07 127.12 207.45 129.49 C 201.34 133.32 194.97 136.73 188.79 140.45 C 187.84 134.68 188.30 128.82 188.24 123.00 C 188.20 114.60 188.29 106.19 188.20 97.79 Z" />
</g>
<g id="#2dc9fbff">
<path fill="#2dc9fb" opacity="1.00" d=" M 31.27 30.34 C 42.29 30.22 53.33 30.70 64.34 30.07 C 69.21 30.55 74.11 30.41 79.00 30.40 C 93.66 30.38 108.31 30.45 122.97 30.34 C 123.83 46.23 123.04 62.19 123.35 78.10 C 129.92 76.40 135.64 72.44 142.16 70.63 C 149.00 72.17 154.87 76.62 161.73 78.23 C 162.01 62.27 161.26 46.28 162.09 30.34 C 169.30 30.54 176.52 30.13 183.72 30.53 C 187.52 31.17 188.19 35.77 188.15 38.95 C 188.19 58.57 188.05 78.18 188.20 97.79 C 188.29 106.19 188.20 114.60 188.24 123.00 C 188.30 128.82 187.84 134.68 188.79 140.45 C 156.88 159.10 124.79 177.44 92.52 195.47 C 72.04 206.72 51.80 218.41 30.96 228.98 C 31.37 221.99 31.15 214.99 31.19 208.01 C 31.24 148.78 31.09 89.56 31.27 30.34 Z" />
</g>
</svg>
